<svg width="232" height="73" viewBox="0 0 232 73" fill="none" xmlns="http://www.w3.org/2000/svg">
<path d="M56.7143 48.2856C56.3571 48.6427 55.9286 48.9999 55.5714 49.357C54.6429 50.2142 53.5714 50.2142 52.7857 49.357C52 48.5713 52 47.4285 52.7857 46.5713C53.7857 45.5713 54.7857 44.5713 55.7857 43.4999C58.7143 40.5713 61.7143 37.6428 64.5714 34.6428C66.2857 32.857 66.2857 29.857 64.6429 28.0713C62.8571 26.1428 60 25.9285 57.9286 27.5713C56.3571 28.857 55.1429 30.4999 53.6429 31.857C52.0714 33.1427 50.7143 34.7142 49.2857 36.1427C46.5 38.9285 43.7143 41.7142 40.9286 44.4999C38.5714 46.857 36.1429 49.2856 33.7857 51.6427C33.0714 52.357 31.7857 52.357 31.0714 51.7142C30.2143 50.9285 30.2143 49.7856 30.9286 48.9285C31.0714 48.7856 31.2143 48.5713 31.4286 48.4285C36.2143 43.7142 40.9286 38.9285 45.7143 34.1428C46.1429 33.7142 46.5 33.2142 46.7857 32.7142C47.8571 30.4999 47.2143 27.9285 45.4286 26.5713C43.2143 24.9999 40.7857 25.2142 38.8571 27.1428C38 27.9285 37.2143 28.7856 36.3571 29.5713C36.1429 29.7856 35.7857 29.9999 35.5 30.0713C34.5714 30.2856 33.7857 29.857 33.3571 28.9999C32.9286 28.1428 33.1429 27.2856 33.9286 26.5713C37.6429 22.857 41.2857 19.2142 45 15.4999C46.9286 13.5713 46.9286 10.4999 45 8.57132C43.2143 6.71418 40 6.71418 38.1429 8.57132C35.9286 10.7856 33.7143 12.9285 31.5 15.1428C27.5 19.1428 23.5714 23.0713 19.5714 27.0713C18.5714 28.0713 17.2857 28.1428 16.5 27.2856C15.7143 26.4285 15.7857 25.2856 16.7857 24.2856C18.5 22.5713 20.2143 20.9285 21.9286 19.1428C23.8571 17.1428 23.7143 14.0713 21.7143 12.1428C19.7857 10.357 16.7857 10.4285 14.8571 12.357C10.9286 16.2856 7 20.2142 3.07143 24.1428C0.785716 26.1428 0.714288 28.9999 2.71429 31.1427C4.5 33.0713 7.64286 33.0713 9.64286 31.2142C10.0714 30.7856 10.5 30.357 10.9286 29.9285C12 28.9999 13.5 29.4285 14 30.7142C14.4286 31.7856 13.8571 32.5713 13.1429 33.2856C9.5 36.9285 5.71429 40.6427 2 44.4285C2.20537e-06 46.4285 -0.142855 49.4285 1.64286 51.357C3.64286 53.4999 6.64286 53.6427 8.71429 51.6427C10.6429 49.7856 12.5 47.9285 14.3571 46.0713C18.8571 41.5713 23.3571 37.0713 27.8571 32.4999C28.7143 31.6428 30 31.5713 30.7857 32.357C31.5714 33.1428 31.5714 34.4285 30.6429 35.2856C26.7857 39.1427 22.9286 42.9999 19 46.857C15.7857 50.0713 12.5714 53.2856 9.35714 56.4999C7.42857 58.4285 7.35714 61.2142 9.14286 63.2856C10.7143 65.1427 13.6429 65.4999 15.7143 63.9285C16.5714 63.2856 17.3571 62.4285 18.1429 61.6427C20.5 59.2856 22.8571 56.9285 25.2143 54.5713C26.3571 53.4285 28.0714 53.7142 28.5714 55.2142C28.9286 56.1427 28.5714 56.7856 27.9286 57.4285C25.7143 59.6428 23.5 61.857 21.2857 64.1427C19.3571 66.0713 19.5 69.0713 21.5 71.0713C23.2857 72.857 26.2857 72.9285 28.2143 71.1427C29.0714 70.357 29.9286 69.4999 30.7143 68.7142C36.1429 63.2856 41.5714 57.7856 47.0714 52.357C47.8571 51.5713 49.0714 51.5713 49.8571 52.2142C50.6429 52.9285 50.7143 54.0713 50 54.9285C49.6429 55.357 49.2143 55.7142 48.8571 56.1428C47.3571 57.7142 46.9286 59.6427 47.7143 61.5713C48.5 63.4285 50.2143 64.5713 52.2143 64.5713C53.3571 64.5713 54.5 64.2856 55.3571 63.4999C58.2143 60.7142 61 57.9285 63.7143 55.0713C65.5714 53.0713 65.4286 50.1427 63.5 48.2856C61.6429 46.357 58.6429 46.4285 56.7143 48.2856Z" fill="black"/>
<path d="M53.0714 24.6428C55.8571 24.6428 58.0714 22.4285 58.0714 19.6428C58.0714 16.9999 55.8571 14.7856 53.2143 14.7856C50.5 14.7856 48.2857 16.9999 48.2857 19.7142C48.2857 22.3571 50.4286 24.5714 53.0714 24.6428Z" fill="black"/>
<path d="M28.1429 10.5C30.9286 10.5 33.1429 8.28568 33.1429 5.49997C33.1429 2.85711 30.9286 0.642822 28.2857 0.642822C25.5714 0.642822 23.3571 2.85711 23.3571 5.57139C23.4286 8.28568 25.5714 10.5 28.1429 10.5Z" fill="black"/>
<path d="M69.5 38.0713C66.7857 38.0713 64.5714 40.2856 64.5714 42.9999C64.5714 45.6427 66.7143 47.857 69.3571 47.9284C72.1428 47.9284 74.3571 45.7141 74.3571 42.9284C74.3571 40.2856 72.1428 38.0713 69.5 38.0713Z" fill="black"/>
<path d="M101.929 39.1429C101.786 39.7858 101.214 40.2858 100.5 40.2858H93.8571C91.0714 40.2858 89.1429 39.9286 87.9286 39.2858C86.7857 38.6429 86.2143 37.3572 86.2143 35.4286C86.2143 34.5715 86.3571 33.5715 86.5714 32.3572L88.7857 20.9286H86.7143C85.7857 20.9286 85.1429 20.1429 85.2857 19.2144L85.9286 15.7858C86 15.5715 86.0714 15.3572 86.2143 15.2144L90.6429 9.28578C90.9286 8.92864 91.3571 8.71436 91.7857 8.71436H97.1429C98.0714 8.71436 98.7143 9.50007 98.5714 10.4286L97.5714 15.4286H103.643C104.571 15.4286 105.214 16.2144 105.071 17.1429L104.571 19.7144C104.429 20.3572 103.857 20.8572 103.143 20.8572H96.5L94.1429 33.0001C94.1429 33.1429 94.1429 33.2858 94.1429 33.4286C94.1429 33.8572 94.5 34.0715 95.2857 34.0715H101.071C102 34.0715 102.643 34.8572 102.5 35.7858L101.929 39.1429Z" fill="#0D0F0F"/>
<path d="M142.571 39.1429C142.429 39.7858 141.857 40.2858 141.143 40.2858H121.786C118.5 40.2858 116.214 39.7858 115 38.7858C113.786 37.7858 113.5 35.8572 114 32.9286L116 22.5715C116.571 19.5715 117.571 17.5715 118.857 16.6429C120.143 15.7144 122.429 15.2144 125.571 15.2144H138.214C141.5 15.2144 143.786 15.7144 145 16.6429C146.214 17.6429 146.571 19.5715 146 22.4286L144.714 29.3572C144.571 30.0001 144 30.5001 143.286 30.5001H122.143L121.571 33.5001C121.5 33.9286 121.5 34.1429 121.643 34.2858C121.786 34.4286 122.143 34.5001 122.571 34.5001H141.714C142.643 34.5001 143.286 35.2858 143.143 36.2144L142.571 39.1429ZM138.143 25.7144L138.857 21.7144C138.929 21.2858 138.929 21.0001 138.786 20.9286C138.643 20.7858 138.357 20.7858 137.857 20.7858H125.214C124.786 20.7858 124.429 20.8572 124.214 20.9286C124 21.0715 123.857 21.2858 123.786 21.7144L123.071 25.7144H138.143Z" fill="#0D0F0F"/>
<path d="M184.214 39.1429C184.071 39.7857 183.5 40.2857 182.786 40.2857H164.5C161.714 40.2857 159.714 39.9286 158.5 39.2857C157.286 38.6429 156.643 37.3571 156.643 35.4286C156.643 34.7143 156.714 33.8571 156.929 32.8571L158.857 22.9286C159.429 19.9286 160.429 18 161.786 17C163.143 16 165.429 15.5 168.571 15.5H186.429C187.357 15.5 188 16.2857 187.857 17.2143L187.286 20.0714C187.143 20.7143 186.571 21.2143 185.857 21.2143H168.5C168.071 21.2143 167.714 21.2857 167.5 21.4286C167.286 21.5714 167.143 21.8571 167.071 22.2143L164.857 33.2143C164.786 33.3571 164.786 33.5 164.786 33.5714C164.786 34 165.143 34.2143 165.857 34.2143H183.357C184.286 34.2143 184.929 35 184.786 35.9286L184.214 39.1429Z" fill="#0D0F0F"/>
<path d="M226.857 40.2858H221.714C220.786 40.2858 220.143 39.5001 220.286 38.5715L223.5 22.1429C223.5 21.9286 223.571 21.7858 223.571 21.7144C223.571 21.4286 223.5 21.2858 223.357 21.2144C223.214 21.1429 222.929 21.1429 222.571 21.1429H209.071L205.571 39.0715C205.429 39.7144 204.857 40.2144 204.143 40.2144H199C198.071 40.2144 197.429 39.4286 197.571 38.5001L203.714 6.85721C203.857 6.21436 204.429 5.71436 205.143 5.71436H210.286C211.214 5.71436 211.857 6.50007 211.714 7.42864L210.143 15.4286H224.071C226.786 15.4286 228.786 15.7858 230 16.4286C231.214 17.0715 231.786 18.3572 231.786 20.2144C231.786 21.0001 231.714 21.8572 231.5 22.8572L228.357 39.0715C228.143 39.7858 227.571 40.2858 226.857 40.2858Z" fill="#0D0F0F"/>
<path d="M97.5 61.2145H88.0714L87.0714 66.3573C87 66.8573 86.5 67.2145 86 67.2145H83.2143C82.5714 67.2145 82 66.5716 82.1428 65.9287L85.9286 46.643C86 46.143 86.5 45.7859 87 45.7859H100.357C102.071 45.7859 103.286 46.0002 104 46.4287C104.714 46.8573 105.071 47.643 105.071 48.7859C105.071 49.2859 105 49.7859 104.857 50.4287L103.643 56.5716C103.286 58.4287 102.643 59.643 101.786 60.2859C100.929 60.8573 99.5 61.2145 97.5 61.2145ZM98.7143 56.7859L100.071 50.0002C100.071 49.9287 100.071 49.7859 100.071 49.7859C100.071 49.643 100 49.5002 99.9286 49.5002C99.8571 49.4287 99.6428 49.4287 99.4286 49.4287H90.4286L88.8571 57.5002H97.8571C98.1428 57.5002 98.3571 57.4287 98.4286 57.3573C98.5714 57.2145 98.6428 57.0002 98.7143 56.7859Z" fill="#0D0F0F"/>
<path d="M127.071 60.3574C127 60.8574 126.5 61.2145 126 61.2145H114.143C112.071 61.2145 110.714 60.9288 109.929 60.2859C109.214 59.6431 109 58.4288 109.357 56.6431L110.643 50.2145C111 48.3573 111.571 47.1431 112.429 46.5002C113.214 45.9288 114.643 45.6431 116.571 45.6431H124.429C126.5 45.6431 127.857 45.9288 128.643 46.5716C129.429 47.2145 129.643 48.3573 129.286 50.2145L128.5 54.3574C128.429 54.8574 127.929 55.2145 127.429 55.2145H114.357L114 57.0716C113.929 57.2859 113.929 57.5002 114.071 57.5716C114.143 57.6431 114.357 57.7145 114.643 57.7145H126.286C126.929 57.7145 127.5 58.3574 127.357 59.0002L127.071 60.3574ZM124.286 52.1431L124.714 49.6431C124.786 49.3574 124.786 49.2145 124.643 49.1431C124.571 49.0716 124.357 49.0002 124.071 49.0002H116.214C115.929 49.0002 115.714 49.0716 115.571 49.1431C115.429 49.2145 115.357 49.3574 115.286 49.6431L114.857 52.1431H124.286Z" fill="#0D0F0F"/>
<path d="M148 61.3573H138.571C136.571 61.3573 135.143 61.0716 134.429 60.4288C133.714 59.7859 133.5 58.5716 133.857 56.7859L135.143 50.2859C135.5 48.4288 136.071 47.2145 136.929 46.5716C137.714 46.0002 139.071 45.6431 141.071 45.6431H150.5C152.5 45.6431 153.929 45.9288 154.643 46.5716C155.357 47.2145 155.571 48.4288 155.214 50.2145L153.929 56.7145C153.571 58.5716 153 59.7859 152.143 60.4288C151.286 61.0716 149.929 61.3573 148 61.3573ZM148.857 56.9288L150.214 49.7859C150.286 49.5002 150.214 49.3574 150.143 49.2859C150.071 49.2145 149.857 49.1431 149.571 49.1431H141C140.714 49.1431 140.5 49.2145 140.357 49.2859C140.214 49.3574 140.143 49.5002 140.143 49.7859L138.786 56.9288C138.714 57.1431 138.714 57.3574 138.857 57.4288C138.929 57.5002 139.143 57.5716 139.429 57.5716H148C148.286 57.5716 148.5 57.5002 148.571 57.4288C148.714 57.3574 148.786 57.1431 148.857 56.9288Z" fill="#0D0F0F"/>
<path d="M173.357 61.2145H163.929L162.929 66.3573C162.857 66.8573 162.357 67.2145 161.857 67.2145H159.071C158.429 67.2145 157.857 66.5716 158 65.9287L161.786 46.643C161.857 46.143 162.357 45.7859 162.857 45.7859H176.214C177.929 45.7859 179.143 46.0002 179.857 46.4287C180.571 46.8573 180.929 47.643 180.929 48.7859C180.929 49.2859 180.857 49.7859 180.714 50.4287L179.5 56.5716C179.143 58.4287 178.5 59.643 177.643 60.2859C176.786 60.8573 175.357 61.2145 173.357 61.2145ZM174.571 56.7859L175.929 50.0002C175.929 49.9287 175.929 49.7859 175.929 49.7859C175.929 49.643 175.857 49.5002 175.786 49.5002C175.714 49.4287 175.5 49.4287 175.286 49.4287H166.286L164.714 57.5002H173.714C174 57.5002 174.214 57.4287 174.286 57.3573C174.429 57.2145 174.571 57.0002 174.571 56.7859Z" fill="#0D0F0F"/>
<path d="M194.714 60.3573C194.643 60.8573 194.143 61.2145 193.643 61.2145H190.071C188.357 61.2145 187.071 61.0002 186.429 60.643C185.714 60.2859 185.357 59.5716 185.357 58.4287C185.357 57.8573 185.429 57.2859 185.571 56.5716L188.643 40.643C188.714 40.143 189.214 39.7859 189.714 39.7859H192.5C193.143 39.7859 193.714 40.4287 193.571 41.0716L190.5 56.7859C190.5 56.8573 190.429 56.9287 190.429 57.0002C190.429 57.2859 190.643 57.4288 191.143 57.4288H193.929C194.571 57.4288 195.143 58.0716 195 58.7145L194.714 60.3573Z" fill="#0D0F0F"/>
<path d="M217.357 60.3574C217.286 60.8574 216.786 61.2145 216.286 61.2145H204.429C202.357 61.2145 201 60.9288 200.214 60.2859C199.5 59.6431 199.286 58.4288 199.643 56.6431L200.929 50.2145C201.286 48.3573 201.857 47.1431 202.714 46.5002C203.5 45.9288 204.929 45.6431 206.857 45.6431H214.714C216.786 45.6431 218.143 45.9288 218.929 46.5716C219.714 47.2145 219.929 48.3573 219.571 50.2145L218.786 54.3574C218.714 54.8574 218.214 55.2145 217.714 55.2145H204.643L204.286 57.0716C204.214 57.2859 204.214 57.5002 204.357 57.5716C204.429 57.6431 204.643 57.7145 204.929 57.7145H216.571C217.214 57.7145 217.786 58.3574 217.643 59.0002L217.357 60.3574ZM214.571 52.1431L215 49.6431C215.071 49.3574 215.071 49.2145 214.929 49.1431C214.857 49.0716 214.643 49.0002 214.357 49.0002H206.5C206.214 49.0002 206 49.0716 205.857 49.1431C205.714 49.2145 205.643 49.3574 205.571 49.6431L205.143 52.1431H214.571Z" fill="#0D0F0F"/>
</svg>
